<svg width="142" height="32" xmlns="http://www.w3.org/2000/svg" xmlns:xlink="http://www.w3.org/1999/xlink" xml:space="preserve" overflow="hidden"><defs><clipPath id="clip0"><rect x="1102" y="650" width="142" height="32"/></clipPath><clipPath id="clip1"><rect x="1102" y="650" width="142" height="32"/></clipPath><clipPath id="clip2"><rect x="1103" y="651" width="140" height="31"/></clipPath><clipPath id="clip3"><rect x="1103" y="651" width="140" height="31"/></clipPath><clipPath id="clip4"><rect x="1103" y="651" width="140" height="31"/></clipPath></defs><g clip-path="url(#clip0)" transform="translate(-1102 -650)"><g clip-path="url(#clip1)"><g clip-path="url(#clip2)"><g clip-path="url(#clip3)"><g clip-path="url(#clip4)"><path d="M13.426 13.2796C15.0483 12.3444 16.0445 10.6123 16.0445 8.74195L16.0445 0C16.0445 0 12.1818 0 12.1818 0L12.1818 9.05097C12.1818 10.2423 10.8929 10.9864 9.86417 10.3928L2.00862 5.85507 0 9.15668 7.15213 13.2878C8.82733 14.2555 8.82733 16.6748 7.15213 17.6425L0 21.7736 2.00862 25.0792 9.86417 20.5415C10.8929 19.9479 12.1818 20.692 12.1818 21.8833L12.1818 30.9343C12.1818 30.9343 16.0445 30.9343 16.0445 30.9343L16.0445 22.172C16.0445 20.2976 15.0443 18.5695 13.426 17.6343 11.7508 16.6666 11.7508 14.2473 13.426 13.2796Z" fill="#EF7D00" fill-rule="nonzero" fill-opacity="1" transform="matrix(1 0 0 1.00226 1103.11 651)"/><path d="M91.4408 5.79815 95.3076 5.79815 95.3076 25.1321 91.4408 25.1321Z" fill="#EF7D00" fill-rule="nonzero" fill-opacity="1" transform="matrix(1 0 0 1.00226 1103.11 651)"/><path d="M103.041 21.2653 103.041 9.66494C103.041 9.66494 106.908 9.66494 106.908 9.66494L106.908 5.79815C106.908 5.79815 103.041 5.79815 103.041 5.79815L103.041 1.93136C103.041 1.93136 99.1744 1.93136 99.1744 1.93136L99.1744 5.79815C99.1744 5.79815 97.243 5.79815 97.243 5.79815L97.243 9.66494C97.243 9.66494 99.1744 9.66494 99.1744 9.66494L99.1744 20.5375C99.1744 23.0747 101.207 25.128 103.716 25.128L108.839 25.128C108.839 25.128 108.839 21.2612 108.839 21.2612L103.041 21.2612Z" fill="#EF7D00" fill-rule="nonzero" fill-opacity="1" transform="matrix(1 0 0 1.00226 1103.11 651)"/><path d="M83.7194 9.66494 83.7194 25.1321C83.7194 25.1321 79.8038 25.1321 79.8038 25.1321L79.8038 10.405C79.8038 7.86369 81.8531 5.80221 84.3862 5.80221L89.5094 5.80221C89.5094 5.80221 89.5094 9.669 89.5094 9.669L83.7194 9.669Z" fill="#EF7D00" fill-rule="nonzero" fill-opacity="1" transform="matrix(1 0 0 1.00226 1103.11 651)"/><path d="M91.4408 0 95.3076 0 95.3076 3.86679 91.4408 3.86679Z" fill="#EF7D00" fill-rule="nonzero" fill-opacity="1" transform="matrix(1 0 0 1.00226 1103.11 651)"/><path d="M133.992 25.1321 133.971 11.6004 130.105 11.6004 130.105 9.66494 139.774 9.66494 139.774 11.6004 135.907 11.6004 135.907 25.1321 133.992 25.1321Z" fill="#EF7D00" fill-rule="nonzero" fill-opacity="1" transform="matrix(1 0 0 1.00226 1103.11 651)"/><path d="M112.706 9.66494 114.637 9.66494 114.637 25.1321 112.706 25.1321Z" fill="#EF7D00" fill-rule="nonzero" fill-opacity="1" transform="matrix(1 0 0 1.00226 1103.11 651)"/><path d="M49.76 13.6822C51.0774 13.9343 52.3134 14.2555 53.4275 14.6336L53.4316 14.6336C54.5579 15.0199 55.4971 15.5769 56.2209 16.2926 56.9487 17.0163 57.3187 18.0857 57.3187 19.4681 57.3431 20.6432 57.026 21.7044 56.3713 22.6112 55.7167 23.5179 54.7775 24.2376 53.582 24.7499 52.3866 25.2581 50.9473 25.5143 49.2965 25.5143 47.6497 25.5143 46.1453 25.2419 44.832 24.7092 43.5146 24.1725 42.4493 23.4203 41.6605 22.4607 40.9286 21.5702 40.4569 20.5171 40.2658 19.3258L44.6083 19.3258C44.775 19.7975 45.019 20.2366 45.3443 20.631 45.7346 21.1108 46.2713 21.5011 46.9422 21.7979 47.6091 22.0948 48.4263 22.2411 49.3005 22.2411 50.1747 22.2411 50.8903 22.1232 51.4393 21.8915 51.9841 21.6638 52.3866 21.3507 52.6428 20.9644 52.899 20.5781 53.0331 20.1634 53.0331 19.7283 53.0331 19.0778 52.8502 18.5777 52.4964 18.2442 52.1305 17.9027 51.5978 17.6303 50.9025 17.4351 50.195 17.2359 49.3371 17.0326 48.345 16.8293 47.5399 16.6544 46.6942 16.4349 45.8322 16.1828 44.9661 15.9307 44.1733 15.6013 43.4658 15.2069 42.7542 14.8085 42.1728 14.3002 41.7377 13.6984 41.2986 13.0885 41.075 12.3241 41.075 11.4255 41.075 10.3236 41.388 9.31526 42.002 8.43293 42.616 7.5506 43.5064 6.84718 44.649 6.35113 45.7875 5.85507 47.1618 5.60298 48.7313 5.60298 50.9513 5.60298 52.7892 6.1153 54.1879 7.11961 55.5907 8.13204 56.412 9.59988 56.6316 11.4906L56.6438 11.6004 52.5574 11.6004C52.5574 11.6004 52.5452 11.515 52.5452 11.515 52.4151 10.6855 52.0207 10.0309 51.3742 9.57142 50.7236 9.10789 49.7925 8.87206 48.6947 8.87206 47.5969 8.87206 46.7389 9.08349 46.1534 9.49823 45.5679 9.91296 45.2874 10.4456 45.2874 11.1246 45.2874 11.5312 45.4541 11.885 45.7997 12.2103 46.1494 12.5396 46.6657 12.8202 47.3366 13.0397 48.0157 13.2634 48.837 13.4789 49.7681 13.6822" fill="#EF7D00" fill-rule="evenodd" fill-opacity="1" transform="matrix(1 0 0 1.00226 1103.11 651)"/><path d="M29.8324 5.50946C31.7434 5.50946 33.4308 5.93233 34.8336 6.76993L34.8336 6.76993C36.2364 7.60346 37.3383 8.71755 38.0986 10.0797 38.859 11.4418 39.2452 12.9747 39.2452 14.6458L39.2452 15.4875C39.2452 15.7924 39.233 16.1177 39.2046 16.4511L39.1965 16.5446 23.9692 16.5446C24.0424 17.6506 24.3067 18.6021 24.758 19.3787 25.2947 20.3016 26.0103 21.0173 26.8886 21.5052 27.7669 21.9931 28.7305 22.2371 29.7511 22.2371 30.9506 22.2371 31.9671 21.9606 32.7803 21.4117 33.565 20.8831 34.1587 20.1837 34.5409 19.3299L38.6801 19.3299C38.3385 20.5253 37.753 21.6028 36.9479 22.5339 36.1347 23.4731 35.1101 24.2294 33.9025 24.7783 32.6949 25.3313 31.2962 25.6119 29.7511 25.6119 27.8401 25.6119 26.1242 25.189 24.6523 24.3555 23.1804 23.5219 22.0134 22.3428 21.1718 20.8506 20.3301 19.3624 19.9072 17.5937 19.9072 15.5973 19.9072 13.5968 20.326 11.824 21.1514 10.3236 21.9809 8.8192 23.1519 7.63192 24.632 6.78213 26.1161 5.93233 27.9132 5.50539 29.8283 5.50539M26.8886 9.56735C26.0103 10.0146 25.2947 10.6814 24.758 11.5394 24.388 12.133 24.144 12.7592 24.0302 13.5805L35.1223 13.5805C35.0247 12.133 34.488 11.0514 33.5203 10.2016 32.5282 9.32746 31.2596 8.88832 29.7552 8.88832 28.7346 8.88832 27.7709 9.11602 26.8886 9.56328" fill="#EF7D00" fill-rule="evenodd" fill-opacity="1" transform="matrix(1 0 0 1.00226 1103.11 651)"/><path d="M68.8296 5.60704C70.6309 5.60704 72.2248 6.04618 73.5747 6.91224L73.5747 6.91224C74.9205 7.7783 75.9899 8.97778 76.7543 10.4781 77.5187 11.9744 77.905 13.6984 77.905 15.6013 77.905 17.5042 77.5187 19.2242 76.7543 20.7083 75.9899 22.1964 74.9124 23.3796 73.5543 24.2335 72.1963 25.0874 70.5943 25.5184 68.793 25.5184 67.3374 25.5184 66.0363 25.2134 64.9222 24.6157 63.9545 24.0952 63.064 23.3878 62.4419 22.5054L62.4419 30.9302C62.4419 30.9302 58.5751 30.9302 58.5751 30.9302L58.5751 22.3794C58.5751 22.3794 58.5751 8.8558 58.5751 8.8558L58.5751 5.79815C58.5751 5.79815 62.4419 5.79815 62.4419 5.79815L62.4419 8.69722C62.8038 8.24183 63.2917 7.79863 63.7593 7.37576 64.3529 6.83905 65.0767 6.40805 65.9062 6.08684 66.7356 5.76969 67.7196 5.60704 68.8296 5.60704M73.2535 18.9436C73.7454 17.9921 73.9975 16.8496 73.9975 15.5607 73.9975 14.2961 73.7495 13.1617 73.2535 12.1981 72.7615 11.2344 72.0743 10.47 71.2083 9.92516 70.3463 9.38031 69.3094 9.10382 68.2035 9.10382 67.0975 9.10382 66.0932 9.38031 65.2149 9.92516 64.3407 10.4659 63.6536 11.2344 63.1697 12.1981 62.6859 13.1617 62.4419 14.2961 62.4419 15.5647 62.4419 16.8333 62.6899 17.9637 63.1697 18.9314 63.6495 19.895 64.3367 20.6595 65.2149 21.2043 66.0891 21.7492 67.0731 22.0256 68.2035 22.0256 69.3338 22.0256 70.3422 21.7492 71.2083 21.2043 72.0702 20.6635 72.7615 19.9032 73.2535 18.9517" fill="#EF7D00" fill-rule="evenodd" fill-opacity="1" transform="matrix(1 0 0 1.00226 1103.11 651)"/><path d="M119.651 24.5262C120.651 25.124 121.834 25.4208 123.2 25.4208 124.819 25.4208 126.132 25.0345 127.145 24.266 128.096 23.5301 128.722 22.5298 129.023 21.2653L126.86 21.2653C126.644 21.9484 126.25 22.5054 125.685 22.9364 125.067 23.4 124.233 23.6317 123.18 23.6317 122.245 23.6317 121.432 23.4203 120.736 22.9934 120.053 22.5542 119.521 21.9321 119.139 21.123 118.769 20.3138 118.586 18.476 118.586 17.3497 118.586 16.2356 118.769 14.597 119.139 13.7879 119.521 12.9665 120.053 12.3404 120.736 11.9175 121.432 11.4784 122.249 11.2629 123.18 11.2629 124.233 11.2629 125.059 11.5068 125.664 11.9988 126.201 12.4136 126.579 12.9543 126.799 13.6293L129.007 13.6293C128.698 12.3648 128.08 11.3686 127.145 10.6448 126.132 9.86417 124.819 9.46977 123.2 9.46977 121.834 9.46977 120.655 9.77472 119.671 10.3846 118.687 10.9823 117.923 11.824 117.382 12.9096 116.845 13.9952 116.573 15.9266 116.573 17.3457 116.573 18.7769 116.837 20.9075 117.362 21.9972 117.902 23.0706 118.663 23.9123 119.651 24.5222" fill="#EF7D00" fill-rule="evenodd" fill-opacity="1" transform="matrix(1 0 0 1.00226 1103.11 651)"/></g></g></g></g></g></svg>